<?xml version="1.0" encoding="utf-8"?>
<!-- Generator: Adobe Illustrator 23.0.2, SVG Export Plug-In . SVG Version: 6.00 Build 0)  -->
<svg version="1.1" id="图层_1" xmlns="http://www.w3.org/2000/svg" xmlns:xlink="http://www.w3.org/1999/xlink" x="0px" y="0px"
	 viewBox="0 0 192 192" style="enable-background:new 0 0 192 192;" xml:space="preserve">
<style type="text/css">
	.st0{fill:url(#SVGID_1_);}
	.st1{fill:url(#SVGID_2_);}
</style>
<title>rc</title>
<g>
	
		<linearGradient id="SVGID_1_" gradientUnits="userSpaceOnUse" x1="23.0108" y1="74.992" x2="135.4456" y2="121.6876" gradientTransform="matrix(1 0 0 -1 0 192.7401)">
		<stop  offset="0.2857" style="stop-color:#31CDB0"/>
		<stop  offset="0.362" style="stop-color:#30C3B3"/>
		<stop  offset="0.4907" style="stop-color:#2FA9BA"/>
		<stop  offset="0.6148" style="stop-color:#2D89C3"/>
		<stop  offset="0.9286" style="stop-color:#3551A4"/>
	</linearGradient>
	<path class="st0" d="M48.5,69.2c2.2-0.1,6.5-0.3,11-0.3c11.5,0,18.6,4.4,18.6,13.3c0,8.6-7,13.5-17.9,13.5H48.5V69.2z M33.4,55.2
		c-0.8,0-0.9,0.5-0.9,1.2v86.1c0,0.8,0.3,1.1,1.1,1.1h13.9c0.7,0,1.1-0.3,1.1-1.1v-32.9h11.6c1.5,0,2.2,0.7,3.1,2.3
		c5.9,9.4,15.4,24.9,19.3,31c0.5,0.5,1.2,0.8,1.9,0.7h16.8c0.8,0,0.7-0.7,0.3-1.5c-3.9-6.7-20.1-30.9-24.5-37
		c9.8-3.6,17.4-12,17.4-23.7c0-17.2-12.7-26.5-34.2-26.5C49.7,54.8,44.1,54.9,33.4,55.2"/>
	
		<linearGradient id="SVGID_2_" gradientUnits="userSpaceOnUse" x1="35.7536" y1="44.3097" x2="148.1884" y2="91.0054" gradientTransform="matrix(1 0 0 -1 0 192.7401)">
		<stop  offset="0.2857" style="stop-color:#31CDB0"/>
		<stop  offset="0.362" style="stop-color:#30C3B3"/>
		<stop  offset="0.4907" style="stop-color:#2FA9BA"/>
		<stop  offset="0.6148" style="stop-color:#2D89C3"/>
		<stop  offset="0.9286" style="stop-color:#3551A4"/>
	</linearGradient>
	<path class="st1" d="M106.5,99.5c0,30.7,21.3,45.4,46.2,45.4c7.5,0,14.1-0.8,18.6-2.4c0.7-0.3,1-1,0.9-1.8v-12
		c0-0.8-0.4-0.9-0.9-0.7c-5,1.8-10,2.3-16.6,2.3c-14.1,0-31.4-7.9-31.4-31.3c0-18.9,12.1-31,31.1-31c7,0,13.2,0.9,17.5,3
		c0.5,0.3,1.1,0.3,1.1-0.8V57.5c0.1-0.6-0.2-1.2-0.8-1.5c-3.4-1.5-8.8-2.3-17.5-2.3C125.3,53.7,106.5,72.4,106.5,99.5"/>
</g>
</svg>
